HIERARCHY
ROOT Hips
{
    OFFSET   0.000000   0.000000   0.000000
    CHANNELS 6 Xposition Yposition Zposition Zrotation Xrotation Yrotation
    JOINT Chest
    {
        OFFSET   0.000000   8.007230   0.000000
        CHANNELS 3 Zrotation Xrotation Yrotation
        JOINT Chest2
        {
            OFFSET   0.000000  22.077100   0.000000
            CHANNELS 3 Zrotation Xrotation Yrotation
            JOINT Neck
            {
                OFFSET   0.000000  23.254700   0.000000
                CHANNELS 3 Zrotation Xrotation Yrotation
                JOINT Head
                {
                    OFFSET   0.000010  14.370000   1.956610
                    CHANNELS 3 Zrotation Xrotation Yrotation
                    End Site
                    {
                        OFFSET   0.000000  19.566000   0.000000
                    }
                }
            }
            JOINT LeftCollar
            {
                OFFSET   3.911900  19.017000  -0.467063
                CHANNELS 3 Zrotation Xrotation Yrotation
                JOINT LeftShoulder
                {
                    OFFSET  10.383700   0.000000   0.000000
                    CHANNELS 3 Zrotation Xrotation Yrotation
                    JOINT LeftElbow
                    {
                        OFFSET  26.662100   0.001671   0.000522
                        CHANNELS 3 Zrotation Xrotation Yrotation
                        JOINT LeftWrist
                        {
                            OFFSET  28.869000   0.000037  -0.000114
                            CHANNELS 3 Zrotation Xrotation Yrotation
                            JOINT LeftFinger0
                            {
                                OFFSET   2.044650  -2.323450   3.252850
                                CHANNELS 3 Zrotation Xrotation Yrotation
                                JOINT LeftFinger01
                                {
                                    OFFSET   3.088140   0.000000   0.000000
                                    CHANNELS 3 Zrotation Xrotation Yrotation
                                    JOINT LeftFinger02
                                    {
                                        OFFSET   2.639460   0.000000   0.000000
                                        CHANNELS 3 Zrotation Xrotation Yrotation
                                        End Site
                                        {
                                            OFFSET   2.582190   0.000000   0.000000
                                        }
                                    }
                                }
                            }
                            JOINT LeftFinger1
                            {
                                OFFSET   8.364480   0.000000   3.252850
                                CHANNELS 3 Zrotation Xrotation Yrotation
                                JOINT LeftFinger11
                                {
                                    OFFSET   4.646930   0.000000   0.000000
                                    CHANNELS 3 Zrotation Xrotation Yrotation
                                    JOINT LeftFinger12
                                    {
                                        OFFSET   2.323470   0.000000   0.000000
                                        CHANNELS 3 Zrotation Xrotation Yrotation
                                        End Site
                                        {
                                            OFFSET   2.273050   0.000000   0.000000
                                        }
                                    }
                                }
                            }
                            JOINT LeftFinger2
                            {
                                OFFSET   8.364490   0.000016   1.078090
                                CHANNELS 3 Zrotation Xrotation Yrotation
                                JOINT LeftFinger21
                                {
                                    OFFSET   5.111620   0.000000   0.000000
                                    CHANNELS 3 Zrotation Xrotation Yrotation
                                    JOINT LeftFinger22
                                    {
                                        OFFSET   2.788150   0.000013   0.000000
                                        CHANNELS 3 Zrotation Xrotation Yrotation
                                        End Site
                                        {
                                            OFFSET   2.727660   0.000000   0.000000
                                        }
                                    }
                                }
                            }
                            JOINT LeftFinger3
                            {
                                OFFSET   7.899780   0.000016  -1.078090
                                CHANNELS 3 Zrotation Xrotation Yrotation
                                JOINT LeftFinger31
                                {
                                    OFFSET   4.646930   0.000000   0.000000
                                    CHANNELS 3 Zrotation Xrotation Yrotation
                                    JOINT LeftFinger32
                                    {
                                        OFFSET   2.323470   0.000000   0.000000
                                        CHANNELS 3 Zrotation Xrotation Yrotation
                                        End Site
                                        {
                                            OFFSET   2.273050   0.000000   0.000000
                                        }
                                    }
                                }
                            }
                            JOINT LeftFinger4
                            {
                                OFFSET   7.435080   0.000000  -3.252850
                                CHANNELS 3 Zrotation Xrotation Yrotation
                                JOINT LeftFinger41
                                {
                                    OFFSET   3.717550   0.000000   0.000000
                                    CHANNELS 3 Zrotation Xrotation Yrotation
                                    JOINT LeftFinger42
                                    {
                                        OFFSET   1.858760   0.000000   0.000000
                                        CHANNELS 3 Zrotation Xrotation Yrotation
                                        End Site
                                        {
                                            OFFSET   1.818440   0.000000   0.000000
                                        }
                                    }
                                }
                            }
                        }
                    }
                }
            }
            JOINT RightCollar
            {
                OFFSET  -3.911900  19.017000  -0.467064
                CHANNELS 3 Zrotation Xrotation Yrotation
                JOINT RightShoulder
                {
                    OFFSET -10.383700   0.000000   0.000000
                    CHANNELS 3 Zrotation Xrotation Yrotation
                    JOINT RightElbow
                    {
                        OFFSET -26.662100   0.001633   0.000260
                        CHANNELS 3 Zrotation Xrotation Yrotation
                        JOINT RightWrist
                        {
                            OFFSET -28.869000  -0.000045  -0.000080
                            CHANNELS 3 Zrotation Xrotation Yrotation
                            JOINT RightFinger0
                            {
                                OFFSET  -2.044660  -2.323490   3.252850
                                CHANNELS 3 Zrotation Xrotation Yrotation
                                JOINT RightFinger01
                                {
                                    OFFSET  -3.088140   0.000000   0.000000
                                    CHANNELS 3 Zrotation Xrotation Yrotation
                                    JOINT RightFinger02
                                    {
                                        OFFSET  -2.639450   0.000000   0.000000
                                        CHANNELS 3 Zrotation Xrotation Yrotation
                                        End Site
                                        {
                                            OFFSET  -2.582190   0.000000   0.000000
                                        }
                                    }
                                }
                            }
                            JOINT RightFinger1
                            {
                                OFFSET  -8.364480   0.000000   3.252850
                                CHANNELS 3 Zrotation Xrotation Yrotation
                                JOINT RightFinger11
                                {
                                    OFFSET  -4.646920   0.000000   0.000000
                                    CHANNELS 3 Zrotation Xrotation Yrotation
                                    JOINT RightFinger12
                                    {
                                        OFFSET  -2.323470   0.000000   0.000000
                                        CHANNELS 3 Zrotation Xrotation Yrotation
                                        End Site
                                        {
                                            OFFSET  -2.273050   0.000000   0.000000
                                        }
                                    }
                                }
                            }
                            JOINT RightFinger2
                            {
                                OFFSET  -8.364480   0.000000   1.078090
                                CHANNELS 3 Zrotation Xrotation Yrotation
                                JOINT RightFinger21
                                {
                                    OFFSET  -5.111610   0.000000   0.000000
                                    CHANNELS 3 Zrotation Xrotation Yrotation
                                    JOINT RightFinger22
                                    {
                                        OFFSET  -2.788160   0.000000   0.000000
                                        CHANNELS 3 Zrotation Xrotation Yrotation
                                        End Site
                                        {
                                            OFFSET  -2.727660   0.000000   0.000000
                                        }
                                    }
                                }
                            }
                            JOINT RightFinger3
                            {
                                OFFSET  -7.899780   0.000000  -1.078090
                                CHANNELS 3 Zrotation Xrotation Yrotation
                                JOINT RightFinger31
                                {
                                    OFFSET  -4.646930   0.000000   0.000000
                                    CHANNELS 3 Zrotation Xrotation Yrotation
                                    JOINT RightFinger32
                                    {
                                        OFFSET  -2.323470   0.000000   0.000000
                                        CHANNELS 3 Zrotation Xrotation Yrotation
                                        End Site
                                        {
                                            OFFSET  -2.273050   0.000000   0.000000
                                        }
                                    }
                                }
                            }
                            JOINT RightFinger4
                            {
                                OFFSET  -7.435090   0.000000  -3.252850
                                CHANNELS 3 Zrotation Xrotation Yrotation
                                JOINT RightFinger41
                                {
                                    OFFSET  -3.717550   0.000000   0.000000
                                    CHANNELS 3 Zrotation Xrotation Yrotation
                                    JOINT RightFinger42
                                    {
                                        OFFSET  -1.858760   0.000000   0.000000
                                        CHANNELS 3 Zrotation Xrotation Yrotation
                                        End Site
                                        {
                                            OFFSET  -1.818440   0.000000   0.000000
                                        }
                                    }
                                }
                            }
                        }
                    }
                }
            }
        }
    }
    JOINT LeftHip
    {
        OFFSET   9.782990   0.000000   0.000000
        CHANNELS 3 Zrotation Xrotation Yrotation
        JOINT LeftKnee
        {
            OFFSET  -0.000063 -41.789100   0.001657
            CHANNELS 3 Zrotation Xrotation Yrotation
            JOINT LeftAnkle
            {
                OFFSET   0.000078 -41.133200  -0.000113
                CHANNELS 3 Zrotation Xrotation Yrotation
                JOINT LeftToe
                {
                    OFFSET   0.000000  -6.358970  14.674500
                    CHANNELS 3 Zrotation Xrotation Yrotation
                    End Site
                    {
                        OFFSET   0.000000   0.000000   3.913200
                    }
                }
            }
        }
    }
    JOINT RightHip
    {
        OFFSET  -9.782990   0.000000   0.000000
        CHANNELS 3 Zrotation Xrotation Yrotation
        JOINT RightKnee
        {
            OFFSET   0.000053 -41.789200   0.000277
            CHANNELS 3 Zrotation Xrotation Yrotation
            JOINT RightAnkle
            {
                OFFSET   0.000030 -41.133200  -0.000150
                CHANNELS 3 Zrotation Xrotation Yrotation
                JOINT RightToe
                {
                    OFFSET   0.000000  -6.358960  14.674500
                    CHANNELS 3 Zrotation Xrotation Yrotation
                    End Site
                    {
                        OFFSET   0.000000   0.000000   3.913200
                    }
                }
            }
        }
    }
}
MOTION
Frames: 4
Frame Time:   0.016667
 -0.415033  89.608100  -3.019940  -1.956710  -5.928060  -1.239270   0.658073   3.119010  -1.105620   1.379460   6.224500  -2.252120   1.514270   0.917337  -0.023546   2.489410   1.828180  10.378900  -2.313760   0.353413   3.633580 -76.837700  22.132900   0.023755  -3.518250  -5.769780 -13.040600  13.257700  -9.795960   2.534670  38.676900  26.516600 -65.550700 -23.702000  -0.006220  -0.002681  -6.851010   0.000942   0.007121 -22.940100   4.507290 -10.520300 -19.108900  -0.006188  -0.006289 -13.376200  -0.004277  -0.001483 -27.172100   0.798390  -1.554580 -27.778400  -0.006782  -0.008933 -18.500400  -0.003598  -0.001990 -26.720500   0.785975  -1.560890 -26.731200  -0.006765  -0.008318 -17.791600  -0.004135  -0.002706 -28.224200   0.826667  -1.539730 -42.353000  -0.002154  -0.002206 -28.207100  -0.000904  -0.006167   6.479500   2.065100   7.122680  70.929300  16.363100  -2.422980   0.471398  -5.638670   8.804110 -12.203100  -7.588160   1.257240 -37.679300  28.984400  63.231500  29.500900  -0.005924  -0.001693   9.750490   0.015236  -0.001128  29.708400   7.666280  13.159400  25.031400   0.001576  -0.007804  17.522000  -0.000599  -0.005804  28.399500   4.931450   9.061820  42.022700  -0.004278   0.003890  27.987100  -0.003161   0.004051  28.278200   3.989000   7.361300  36.479500  -0.003013   0.003781  24.295400  -0.003407   0.004293  35.919100   0.018686   0.027276  53.878700   0.002796   0.007615  35.883200  -0.001422   0.007964   1.841910   6.980890   0.787040   1.108940   0.089127   3.507330  -1.561900  -1.861670   1.797250   0.000000   0.000000   0.000000   2.828740   6.396830  -2.681340   0.315163   2.060460  -5.367290  -1.911490  -3.518930  -0.268550   0.000000   0.000000   0.000000
 -0.413824  89.608100  -3.021030  -1.956910  -5.942270  -1.238350   0.658023   3.132090  -1.099970   1.379280   6.250730  -2.241010   1.552950   0.917369  -0.023575   2.552990   1.839910  10.330800  -2.318140   0.344301   3.624500 -76.837100  22.134800   0.022015  -3.526360  -5.761540 -13.038200  13.265700  -9.803700   2.535000  38.698000  26.548700 -65.566900 -23.693100  -0.006217  -0.002695  -6.846540   0.000937   0.007132 -22.941200   4.507370 -10.509400 -19.109200  -0.006186  -0.006291 -13.376400  -0.004274  -0.001484 -27.172500   0.794267  -1.546720 -27.767000  -0.006781  -0.008932 -18.492900  -0.003599  -0.001989 -26.713400   0.781751  -1.553090 -26.724000  -0.006763  -0.008318 -17.791600  -0.004134  -0.002704 -28.218400   0.822288  -1.532010 -42.344200  -0.002155  -0.002205 -28.201200  -0.000903  -0.006167   6.468800   2.046890   7.122560  70.917500  16.381000  -2.416610   0.469501  -5.632970   8.796310 -12.213300  -7.604780   1.249460 -37.668000  28.986400  63.233700  29.519100  -0.005930  -0.001694   9.759610   0.015241  -0.001137  29.718100   7.658750  13.143500  25.037600   0.001572  -0.007806  17.526300  -0.000599  -0.005806  28.400000   4.931240   9.056140  42.052600  -0.004275   0.003885  28.007000  -0.003166   0.004049  28.277900   3.989200   7.364490  36.505600  -0.003008   0.003777  24.312800  -0.003410   0.004291  35.930100   0.016489   0.023579  53.895100   0.002795   0.007609  35.894200  -0.001426   0.007961   1.840870   6.990880   0.787070   1.108800   0.090383   3.507430  -1.558780  -1.860730   1.793300  -0.000000   0.000000   0.000000   2.840410   6.404400  -2.681160   0.305878   2.064340  -5.381950  -1.910940  -3.518430  -0.255745  -0.000000   0.000000   0.000000
 -0.410188  89.608000  -3.023540  -1.956960  -5.965330  -1.234500   0.658174   3.153810  -1.094320   1.379800   6.294220  -2.229960   1.612720   0.917593  -0.023619   2.651250   1.856050  10.248100  -2.326940   0.327631   3.615420 -76.835000  22.145000   0.016352  -3.540800  -5.753430 -13.030400  13.274400  -9.811430   2.535330  38.732900  26.599200 -65.602300 -23.676700  -0.006213  -0.002708  -6.838370   0.000931   0.007144 -22.942400   4.507450 -10.498500 -19.109400  -0.006182  -0.006295 -13.376600  -0.004271  -0.001486 -27.173000   0.790145  -1.538870 -27.755500  -0.006780  -0.008932 -18.485200  -0.003600  -0.001985 -26.703600   0.777528  -1.545290 -26.714000  -0.006758  -0.008318 -17.791600  -0.004131  -0.002698 -28.210600   0.817909  -1.524300 -42.332300  -0.002157  -0.002201 -28.193300  -0.000899  -0.006166   6.449070   2.016920   7.122400  70.896900  16.406000  -2.406070   0.466340  -5.623060   8.782380 -12.227200  -7.632600   1.236960 -37.656700  28.988400  63.235900  29.549100  -0.005944  -0.001699   9.774560   0.015251  -0.001150  29.735600   7.650990  13.120300  25.050000   0.001559  -0.007813  17.535000  -0.000601  -0.005812  28.400900   4.931060   9.047540  42.106300  -0.004271   0.003873  28.042800  -0.003176   0.004043  28.277700   3.989500   7.367680  36.554500  -0.002998   0.003764  24.345300  -0.003418   0.004284  35.952400   0.011669   0.016076  53.928500   0.002795   0.007594  35.916400  -0.001436   0.007956   1.837880   7.013550   0.787201   1.108260   0.091638   3.507530  -1.552820  -1.854150   1.785780   0.000000   0.000000   0.000000   2.857570   6.416050  -2.679660   0.291002   2.073640  -5.405630  -1.910490  -3.517930  -0.242941   0.000000   0.000000   0.000000
 -0.403870  89.608000  -3.027710  -1.956460  -5.982690  -1.226670   0.661714   3.171280  -1.095010   1.387360   6.329060  -2.231790   1.651960   0.919535  -0.023640   2.715750   1.861000  10.175600  -2.337480   0.310967   3.615600 -76.827700  22.167800   0.006168  -3.553790  -5.755840 -13.015900  13.274800  -9.811170   2.533880  38.748300  26.641500 -65.648400 -23.660800  -0.006224  -0.002700  -6.830400   0.000933   0.007144 -22.941700   4.507360 -10.506200 -19.109400  -0.006179  -0.006298 -13.376500  -0.004276  -0.001487 -27.172700   0.793749  -1.545790 -27.755400  -0.006780  -0.008928 -18.485100  -0.003599  -0.001978 -26.701500   0.781038  -1.552260 -26.712100  -0.006753  -0.008315 -17.791200  -0.004126  -0.002688 -28.209100   0.821599  -1.531180 -42.330200  -0.002154  -0.002196 -28.191900  -0.000893  -0.006163   6.427980   1.993580   7.130380  70.877700  16.416400  -2.395760   0.464872  -5.613910   8.766150 -12.232400  -7.657050   1.225850 -37.632200  28.967300  63.231100  29.573500  -0.005965  -0.001714   9.786730   0.015265  -0.001156  29.755800   7.650880  13.106600  25.065900   0.001535  -0.007826  17.546200  -0.000606  -0.005822  28.401000   4.933210   9.042460  42.162500  -0.004268   0.003855  28.080200  -0.003190   0.004031  28.281300   3.989660   7.365830  36.610300  -0.002989   0.003742  24.382500  -0.003428   0.004275  35.981500   0.004614   0.006259  53.972100   0.002798   0.007572  35.945500  -0.001454   0.007950   1.831470   7.054280   0.793711   1.107870   0.049373   3.502940  -1.546120  -1.826030   1.778290  -0.000000   0.000000   0.000000   2.866640   6.423370  -2.670550   0.279890   2.087140  -5.422390  -1.910970  -3.521190  -0.247744   0.000000   0.000000   0.000000
